# xmcd
#
# Track frame offsets: 
#        150
#        13378
#        26901
#        45041
#        64642
#        75776
#        97664
#        111906
#        128825
#        144424
#        158285
#        180702
#        196323
#
# Disc length: 2964 seconds
#
# Revision: 4
# Processed by: cddbd v1.5.2PL0 Copyright (c) Steve Scherf et al.
# Submitted via: ExactAudioCopyFreeDBPlugin 1.0
#
DISCID=930b920d
DTITLE=Dionne Warwick - My Friends and Me
DYEAR=2006
DGENRE=SMB
TTITLE0=Walk on By (with Gloria Estefan)
TTITLE1=Message to Michael (with Cyndi Lauper)
TTITLE2=Close to You (with Mya)
TTITLE3=I'll Never Love This Way Again (with Gladys Knight)
TTITLE4=Raindrops Keep Fallin' on My Head (with Kelis)
TTITLE5=Déjà Vu
TTITLE6=I Say a Little Prayer (with Reba McEntire)
TTITLE7=Anyone Who Had a Heart (with Wynonna Judd)
TTITLE8=Then Came You (with Lisa Tucker)
TTITLE9=Wishin' and Hopin' (with Olivia Newton-John)
TTITLE10=Love Will Find a Way (with Cheyenne Elliott)
TTITLE11=The Windows of the World (with Angie Stone, Chante Moore, Deb
TTITLE11=orah Cox, Da Brat)
TTITLE12=Do You Know the Way to San Jose (with Celia Cruz)
EXTD=c2006 Concord Music - Universal Music\nProduced by Damon Elliott\n
EXTD=Co-producer: Teddy "Bear" Harmon\nExecutive Producers: Dionne War
EXTD=wick, Damon Elliott, John Burk
EXTT0=
EXTT1=
EXTT2=
EXTT3=
EXTT4=
EXTT5=
EXTT6=
EXTT7=
EXTT8=
EXTT9=
EXTT10=
EXTT11=
EXTT12=
PLAYORDER=
